<svg width="1170" height="181" viewBox="0 0 1170 181" fill="none" xmlns="http://www.w3.org/2000/svg">
<!--<line y1="180.5" x2="1170" y2="180.5" stroke="black"/>-->
<path d="M1019.36 56.0451L974.667 99.2622L960.679 82.1022L1004.07 40.3603L1004.97 39.4939L1003.72 39.5L960.5 39.7126V20.5H1039.47V99.5H1020.21V56.4045V55.2255L1019.36 56.0451Z" stroke="black"/>
<path d="M493 28.3V27.3H492V28.3H493ZM561.2 28.3H562.2V27.3H561.2V28.3ZM561.2 39.4V40.4H562.2V39.4H561.2ZM493 39.4H492V40.4H493V39.4ZM520.5 38V37H519.5V38H520.5ZM533.8 38H534.8V37H533.8V38ZM533.8 93V94H534.8V93H533.8ZM520.5 93H519.5V94H520.5V93ZM493 29.3H561.2V27.3H493V29.3ZM560.2 28.3V39.4H562.2V28.3H560.2ZM561.2 38.4H493V40.4H561.2V38.4ZM494 39.4V28.3H492V39.4H494ZM520.5 39H533.8V37H520.5V39ZM532.8 38V93H534.8V38H532.8ZM533.8 92H520.5V94H533.8V92ZM521.5 93V38H519.5V93H521.5ZM582.287 90.3L581.877 91.2118L581.889 91.2171L582.287 90.3ZM568.287 78.7L567.445 79.2391L567.45 79.2469L568.287 78.7ZM568.287 42.6L567.45 42.053L567.445 42.0609L568.287 42.6ZM582.287 31.1L582.69 32.0155L582.695 32.0134L582.287 31.1ZM626.488 31.1L626.077 32.0118L626.085 32.0155L626.488 31.1ZM640.387 42.6L639.545 43.1391L639.55 43.1469L640.387 42.6ZM640.387 78.7L639.55 78.153L639.545 78.1609L640.387 78.7ZM626.488 90.3L626.89 91.2155L626.898 91.2117L626.488 90.3ZM618.388 80.4L618.021 79.4694L618.016 79.4715L618.388 80.4ZM627.887 73.1L627.074 72.5187L627.066 72.5299L627.887 73.1ZM627.887 48.3L627.066 48.8701L627.074 48.8812L627.887 48.3ZM618.388 41L618.003 41.9231L618.012 41.9269L618.021 41.9306L618.388 41ZM590.287 41L590.649 41.9327L590.661 41.9274L590.287 41ZM580.588 73.1L581.401 72.5188L580.588 73.1ZM590.287 80.4L589.927 81.3326L590.287 80.4ZM604.388 93.3C595.887 93.3 588.663 91.9817 582.686 89.3829L581.889 91.2171C588.178 93.9517 595.688 95.3 604.388 95.3V93.3ZM582.698 89.3883C576.785 86.7241 572.275 82.9754 569.125 78.1531L567.45 79.2469C570.833 84.4246 575.657 88.4092 581.877 91.2117L582.698 89.3883ZM569.13 78.1609C566.05 73.3489 564.488 67.5437 564.488 60.7H562.488C562.488 67.8563 564.125 74.0511 567.445 79.2391L569.13 78.1609ZM564.488 60.7C564.488 53.7875 566.051 47.9497 569.13 43.1391L567.445 42.0609C564.124 47.2503 562.488 53.4791 562.488 60.7H564.488ZM569.125 43.1469C572.274 38.3269 576.781 34.6129 582.69 32.0155L581.885 30.1845C575.661 32.9204 570.835 36.8731 567.45 42.0531L569.125 43.1469ZM582.695 32.0134C588.669 29.3508 595.89 28 604.388 28V26C595.685 26 588.172 27.3825 581.88 30.1866L582.695 32.0134ZM604.388 28C612.954 28 620.172 29.3513 626.077 32.0117L626.898 30.1883C620.67 27.382 613.155 26 604.388 26V28ZM626.085 32.0155C631.993 34.6123 636.464 38.3241 639.545 43.1391L641.23 42.0609C637.911 36.8759 633.115 32.921 626.89 30.1845L626.085 32.0155ZM639.55 43.1469C642.693 47.9565 644.288 53.7914 644.288 60.7H646.288C646.288 53.4753 644.616 47.2435 641.225 42.0531L639.55 43.1469ZM644.288 60.7C644.288 67.5398 642.694 73.342 639.55 78.1531L641.225 79.2469C644.615 74.058 646.288 67.8602 646.288 60.7H644.288ZM639.545 78.1609C636.462 82.9782 631.989 86.7247 626.077 89.3883L626.898 91.2117C633.12 88.4086 637.913 84.4218 641.23 79.2391L639.545 78.1609ZM626.085 89.3845C620.178 91.9811 612.956 93.3 604.388 93.3V95.3C613.152 95.3 620.664 93.9522 626.89 91.2155L626.085 89.3845ZM604.388 83.8C609.819 83.8 614.616 82.9855 618.759 81.3285L618.016 79.4715C614.159 81.0145 609.623 81.8 604.388 81.8V83.8ZM618.754 81.3306C622.985 79.6656 626.318 77.1153 628.709 73.6701L627.066 72.5299C624.923 75.618 621.923 77.9344 618.021 79.4694L618.754 81.3306ZM628.701 73.6812C631.183 70.2073 632.388 65.8567 632.388 60.7H630.388C630.388 65.5433 629.259 69.4594 627.074 72.5188L628.701 73.6812ZM632.388 60.7C632.388 55.5433 631.183 51.1927 628.701 47.7188L627.074 48.8812C629.259 51.9406 630.388 55.8567 630.388 60.7H632.388ZM628.709 47.7299C626.318 44.2847 622.985 41.7344 618.754 40.0694L618.021 41.9306C621.923 43.4656 624.923 45.782 627.066 48.8701L628.709 47.7299ZM618.772 40.0769C614.626 38.3492 609.823 37.5 604.388 37.5V39.5C609.618 39.5 614.149 40.3174 618.003 41.9231L618.772 40.0769ZM604.388 37.5C599.016 37.5 594.185 38.3501 589.914 40.0726L590.661 41.9274C594.656 40.3166 599.226 39.5 604.388 39.5V37.5ZM589.927 40.0674C585.631 41.7302 582.232 44.277 579.774 47.7188L581.401 48.8812C583.609 45.7897 586.677 43.4697 590.648 41.9326L589.927 40.0674ZM579.774 47.7188C577.292 51.1927 576.088 55.5433 576.088 60.7H578.088C578.088 55.8567 579.216 51.9406 581.401 48.8812L579.774 47.7188ZM576.088 60.7C576.088 65.8567 577.292 70.2073 579.774 73.6812L581.401 72.5188C579.216 69.4594 578.088 65.5433 578.088 60.7H576.088ZM579.774 73.6812C582.232 77.123 585.631 79.6697 589.927 81.3326L590.648 79.4674C586.677 77.9303 583.609 75.6103 581.401 72.5188L579.774 73.6812ZM589.927 81.3326C594.194 82.9847 599.02 83.8 604.388 83.8V81.8C599.222 81.8 594.647 81.0153 590.648 79.4674L589.927 81.3326ZM717.67 28.3V27.3H716.67V28.3H717.67ZM730.97 28.3H731.97V27.3H730.97V28.3ZM729.07 77L728.141 76.632L728.137 76.6404L728.134 76.6489L729.07 77ZM715.87 90.5L716.276 91.4139L716.286 91.4097L715.87 90.5ZM705.97 93.4L705.806 92.4136L705.803 92.4141L705.97 93.4ZM683.17 93.4L683.009 94.3869L683.17 93.4ZM673.07 90.5L672.647 91.4062L672.659 91.4118L672.672 91.4171L673.07 90.5ZM665.27 85.1L664.563 85.8071L665.27 85.1ZM660.07 77L659.134 77.3511L659.137 77.3596L659.141 77.368L660.07 77ZM658.27 28.3V27.3H657.27V28.3H658.27ZM671.57 28.3H672.57V27.3H671.57V28.3ZM674.57 76L673.77 76.6L673.778 76.6097L674.57 76ZM682.77 81.4L682.493 82.3608L682.504 82.364L682.515 82.3668L682.77 81.4ZM706.37 81.4L706.635 82.3644L706.647 82.3608L706.37 81.4ZM714.57 76L713.78 75.3874L713.778 75.3903L714.57 76ZM718.67 64.4V28.3H716.67V64.4H718.67ZM717.67 29.3H730.97V27.3H717.67V29.3ZM729.97 28.3V65.8H731.97V28.3H729.97ZM729.97 65.8C729.97 69.9698 729.351 73.5735 728.141 76.632L730 77.368C731.323 74.0265 731.97 70.1635 731.97 65.8H729.97ZM728.134 76.6489C726.982 79.722 725.326 82.2936 723.174 84.3824L724.567 85.8176C726.948 83.5064 728.759 80.678 730.007 77.3511L728.134 76.6489ZM723.174 84.3824C720.995 86.4976 718.425 88.2346 715.455 89.5903L716.286 91.4097C719.449 89.9654 722.213 88.1024 724.567 85.8176L723.174 84.3824ZM715.464 89.5862C712.549 90.8816 709.332 91.826 705.806 92.4136L706.135 94.3864C709.809 93.774 713.191 92.785 716.276 91.4138L715.464 89.5862ZM705.803 92.4141C702.33 93.0039 698.653 93.3 694.77 93.3V95.3C698.754 95.3 702.544 94.9961 706.138 94.3859L705.803 92.4141ZM694.77 93.3C690.753 93.3 686.94 93.0036 683.332 92.4131L683.009 94.3869C686.734 94.9964 690.655 95.3 694.77 95.3V93.3ZM683.332 92.4131C679.738 91.825 676.452 90.8799 673.469 89.5829L672.672 91.4171C675.822 92.7868 679.269 93.775 683.009 94.3869L683.332 92.4131ZM673.493 89.5938C670.592 88.2399 668.09 86.5053 665.977 84.3929L664.563 85.8071C666.851 88.0947 669.549 89.9601 672.647 91.4062L673.493 89.5938ZM665.977 84.3929C663.884 82.2993 662.222 79.7185 661 76.632L659.141 77.368C660.452 80.6815 662.257 83.5007 664.563 85.8071L665.977 84.3929ZM661.007 76.6489C659.858 73.5852 659.27 69.9754 659.27 65.8H657.27C657.27 70.1579 657.883 74.0148 659.134 77.3511L661.007 76.6489ZM659.27 65.8V28.3H657.27V65.8H659.27ZM658.27 29.3H671.57V27.3H658.27V29.3ZM670.57 28.3V64.4H672.57V28.3H670.57ZM670.57 64.4C670.57 69.5767 671.589 73.691 673.77 76.6L675.37 75.4C673.552 72.9756 672.57 69.3567 672.57 64.4H670.57ZM673.778 76.6097C675.921 79.3957 678.843 81.3079 682.493 82.3608L683.047 80.4392C679.764 79.4921 677.22 77.8043 675.363 75.3903L673.778 76.6097ZM682.515 82.3668C686.148 83.3264 690.236 83.8 694.77 83.8V81.8C690.372 81.8 686.46 81.3402 683.026 80.4332L682.515 82.3668ZM694.77 83.8C699.174 83.8 703.132 83.326 706.635 82.3643L706.106 80.4357C702.809 81.3407 699.034 81.8 694.77 81.8V83.8ZM706.647 82.3608C710.297 81.3079 713.22 79.3957 715.363 76.6097L713.778 75.3903C711.921 77.8043 709.377 79.4921 706.093 80.4392L706.647 82.3608ZM715.361 76.6126C717.616 73.702 718.67 69.5823 718.67 64.4H716.67C716.67 69.351 715.658 72.9647 713.78 75.3874L715.361 76.6126ZM821.856 69.7L822.85 69.8146L822.978 68.7H821.856V69.7ZM768.356 92.2L768.087 93.163L768.09 93.1639L768.356 92.2ZM755.356 85.9L754.742 86.6894L754.749 86.6948L755.356 85.9ZM746.956 75.5L746.053 75.9299L746.056 75.9356L746.956 75.5ZM755.356 35.6L755.97 36.3894L755.972 36.3878L755.356 35.6ZM768.356 29.2L768.626 30.163L768.634 30.1606L768.356 29.2ZM803.856 30L803.501 30.9349L803.505 30.9363L803.856 30ZM816.456 38.6L815.684 39.2348L815.689 39.2416L816.456 38.6ZM821.856 52V53H822.963L822.851 51.8992L821.856 52ZM808.656 52L807.701 52.2957L807.919 53H808.656V52ZM804.256 44.8L803.538 45.4954L803.549 45.5072L803.561 45.5186L804.256 44.8ZM796.456 40.1L796.772 39.1513L796.456 40.1ZM770.656 41.1L771.03 42.0275L771.043 42.0222L770.656 41.1ZM761.056 48.6L761.878 49.1701L761.883 49.1623L761.056 48.6ZM761.056 72.9L760.235 73.4701L761.056 72.9ZM770.656 80.4L770.27 81.3223L770.282 81.3274L770.656 80.4ZM796.356 81.3L796.04 80.3513L796.034 80.3533L796.356 81.3ZM804.156 76.7L803.461 75.9814L803.455 75.9871L803.449 75.9929L804.156 76.7ZM808.656 69.7V68.7H807.947L807.712 69.3697L808.656 69.7ZM820.863 69.5854C820.283 74.6106 818.519 78.8557 815.589 82.3584L817.123 83.6416C820.327 79.8109 822.229 75.1894 822.85 69.8146L820.863 69.5854ZM815.589 82.3584C812.653 85.869 808.643 88.5777 803.512 90.4613L804.201 92.3387C809.603 90.3556 813.926 87.4643 817.123 83.6416L815.589 82.3584ZM803.512 90.4613C798.383 92.3441 792.238 93.3 785.056 93.3V95.3C792.408 95.3 798.797 94.3226 804.201 92.3387L803.512 90.4613ZM785.056 93.3C779.066 93.3 773.59 92.6088 768.623 91.2361L768.09 93.1639C773.255 94.5912 778.913 95.3 785.056 95.3V93.3ZM768.626 91.237C763.733 89.867 759.517 87.8192 755.963 85.1052L754.749 86.6948C758.529 89.5808 762.98 91.7331 768.087 93.163L768.626 91.237ZM755.97 85.1106C752.492 82.4057 749.79 79.0604 747.856 75.0644L746.056 75.9356C748.123 80.2063 751.02 83.7943 754.742 86.6894L755.97 85.1106ZM747.859 75.0701C745.935 71.029 744.956 66.2811 744.956 60.8H742.956C742.956 66.5189 743.978 71.571 746.053 75.9299L747.859 75.0701ZM744.956 60.8C744.956 55.3189 745.935 50.571 747.859 46.5299L746.053 45.6701C743.978 50.029 742.956 55.0811 742.956 60.8H744.956ZM747.859 46.5299C749.794 42.4677 752.496 39.0917 755.97 36.3894L754.742 34.8106C751.017 37.7083 748.119 41.3323 746.053 45.6701L747.859 46.5299ZM755.972 36.3878C759.525 33.6104 763.737 31.5318 768.626 30.163L768.087 28.237C762.975 29.6682 758.521 31.8563 754.74 34.8122L755.972 36.3878ZM768.634 30.1606C773.598 28.7236 779.07 28 785.056 28V26C778.909 26 773.248 26.743 768.078 28.2394L768.634 30.1606ZM785.056 28C792.235 28 798.376 28.9884 803.501 30.9349L804.211 29.0651C798.804 27.0116 792.411 26 785.056 26V28ZM803.505 30.9363C808.704 32.8857 812.747 35.6598 815.684 39.2347L817.229 37.9653C814.032 34.0735 809.676 31.1143 804.207 29.0637L803.505 30.9363ZM815.689 39.2416C818.614 42.7385 820.346 47.0108 820.861 52.1007L822.851 51.8992C822.3 46.4558 820.432 41.7948 817.223 37.9584L815.689 39.2416ZM821.856 51H808.656V53H821.856V51ZM809.612 51.7043C808.696 48.747 807.142 46.2006 804.952 44.0814L803.561 45.5186C805.504 47.3994 806.883 49.653 807.701 52.2957L809.612 51.7043ZM804.975 44.1046C802.845 41.9039 800.099 40.26 796.772 39.1513L796.14 41.0487C799.214 42.0733 801.667 43.5627 803.538 45.4954L804.975 44.1046ZM796.772 39.1513C793.445 38.0421 789.533 37.5 785.056 37.5V39.5C789.38 39.5 793.068 40.0246 796.14 41.0487L796.772 39.1513ZM785.056 37.5C779.485 37.5 774.549 38.3832 770.27 40.1778L771.043 42.0222C775.03 40.3502 779.694 39.5 785.056 39.5V37.5ZM770.282 40.1726C765.985 41.9052 762.619 44.5233 760.229 48.0377L761.883 49.1623C764.027 46.01 767.061 43.6281 771.03 42.0274L770.282 40.1726ZM760.235 48.0299C757.828 51.4983 756.656 55.7758 756.656 60.8H758.656C758.656 56.0909 759.751 52.235 761.878 49.1701L760.235 48.0299ZM756.656 60.8C756.656 65.7608 757.83 70.0039 760.235 73.4701L761.878 72.3299C759.75 69.2628 758.656 65.4392 758.656 60.8H756.656ZM760.235 73.4701C762.623 76.9124 765.984 79.5249 770.27 81.3222L771.043 79.4778C767.062 77.8084 764.023 75.4209 761.878 72.3299L760.235 73.4701ZM770.282 81.3274C774.558 83.0516 779.49 83.9 785.056 83.9V81.9C779.69 81.9 775.021 81.0818 771.03 79.4726L770.282 81.3274ZM785.056 83.9C789.532 83.9 793.414 83.3581 796.679 82.2467L796.034 80.3533C793.032 81.3752 789.38 81.9 785.056 81.9V83.9ZM796.672 82.2487C799.992 81.1423 802.734 79.5361 804.863 77.4071L803.449 75.9929C801.578 77.8639 799.121 79.3244 796.04 80.3513L796.672 82.2487ZM804.852 77.4186C807.028 75.3123 808.614 72.8467 809.6 70.0303L807.712 69.3697C806.831 71.8866 805.418 74.0877 803.461 75.9814L804.852 77.4186ZM808.656 70.7H821.856V68.7H808.656V70.7ZM846.533 55V54H845.533V55H846.533ZM897.833 55H898.833V54H897.833V55ZM897.833 66.1V67.1H898.833V66.1H897.833ZM846.533 66.1H845.533V67.1H846.533V66.1ZM895.633 28.3V27.3H894.633V28.3H895.633ZM908.933 28.3H909.933V27.3H908.933V28.3ZM908.933 93V94H909.933V93H908.933ZM895.633 93H894.633V94H895.633V93ZM834.833 28.3V27.3H833.833V28.3H834.833ZM848.133 28.3H849.133V27.3H848.133V28.3ZM848.133 93V94H849.133V93H848.133ZM834.833 93H833.833V94H834.833V93ZM846.533 56H897.833V54H846.533V56ZM896.833 55V66.1H898.833V55H896.833ZM897.833 65.1H846.533V67.1H897.833V65.1ZM847.533 66.1V55H845.533V66.1H847.533ZM895.633 29.3H908.933V27.3H895.633V29.3ZM907.933 28.3V93H909.933V28.3H907.933ZM908.933 92H895.633V94H908.933V92ZM896.633 93V28.3H894.633V93H896.633ZM834.833 29.3H848.133V27.3H834.833V29.3ZM847.133 28.3V93H849.133V28.3H847.133ZM848.133 92H834.833V94H848.133V92ZM835.833 93V28.3H833.833V93H835.833Z" fill="black"/>
<path d="M168.7 94.1C163.567 94.1 158.933 93.3333 154.8 91.8C150.667 90.2667 147.133 88.0667 144.2 85.2C141.267 82.3333 139 78.8667 137.4 74.8C135.867 70.6667 135.1 66.1 135.1 61.1C135.1 55.9667 135.933 51.3 137.6 47.1C139.267 42.9 141.633 39.3 144.7 36.3C147.833 33.3 151.5 31 155.7 29.4C159.967 27.8 164.633 27 169.7 27C175.5 27 180.567 27.9667 184.9 29.9C189.233 31.8333 192.7 34.5667 195.3 38.1C197.9 41.6333 199.433 45.7667 199.9 50.5H191.1C190.233 47.5 188.8 44.9 186.8 42.7C184.867 40.5 182.467 38.8 179.6 37.6C176.733 36.4 173.433 35.8 169.7 35.8C164.7 35.8 160.333 36.9 156.6 39.1C152.933 41.2333 150.067 44.2 148 48C146 51.8 145 56.1667 145 61.1C145 65.9667 145.9 70.2333 147.7 73.9C149.567 77.5 152.267 80.3 155.8 82.3C159.4 84.3 163.767 85.3 168.9 85.3C172.833 85.3 176.3 84.6333 179.3 83.3C182.3 81.9 184.733 79.9667 186.6 77.5C188.533 74.9667 189.867 71.9667 190.6 68.5L195.6 67.9C194.6 76.5 191.7 83.0333 186.9 87.5C182.167 91.9 176.1 94.1 168.7 94.1ZM193.4 93C193.4 90.8667 193.467 88.4333 193.6 85.7C193.8 82.9 194.033 80.1 194.3 77.3C194.567 74.4333 194.8 71.8667 195 69.6H170.4V61.8H202.4V93H193.4ZM226.216 64.9V84.3H268.216V93H216.416V28.1H268.116V36.8H226.216V56.4H260.516V64.9H226.216ZM275.938 28.1H333.338V36.8H275.938V28.1ZM299.738 35.8H309.538V93H299.738V35.8ZM366.853 28.1H376.553V93H366.853V28.1ZM449.645 82.3L446.845 83.3V28.1H456.545V93H446.845L401.245 39L404.145 38V93H394.345V28.1H404.145L449.645 82.3Z" stroke="black"/>
</svg>
