<svg width="71" height="60" viewBox="0 0 71 60" fill="none" xmlns="http://www.w3.org/2000/svg">
<path d="M20.752 0.0545082C12.6097 0.553017 5.50597 5.31653 2.1272 12.5172C1.00556 14.8989 0.368577 17.2115 0.105476 19.8148C0.0223919 20.701 -0.0191504 27.2093 0.00854448 37.3595L0.0500867 53.4917L0.35473 54.4056C1.21327 56.8982 3.34577 58.9337 6.00448 59.7507C6.77993 59.9861 7.5 60 16.2516 60C26.5817 60 26.3879 60.0138 28.1603 59.1553C29.9882 58.2691 31.5253 56.552 32.2315 54.6272L32.5915 53.6302L32.6331 44.0478C32.6746 33.4545 32.6746 33.496 31.7884 31.6959C31.2345 30.5327 29.6005 28.871 28.4373 28.2617C26.6925 27.3478 26.6925 27.3478 19.9211 27.2647C13.8698 27.1816 13.7452 27.1816 13.1774 26.8631C12.4297 26.4754 11.6958 25.7415 11.308 24.9937C10.8788 24.1906 10.7818 21.2965 11.1142 19.6348C11.765 16.4637 14.0083 13.528 16.9024 12.1156C18.7995 11.174 19.5611 11.0217 22.7183 10.9247L25.4324 10.8416L26.0278 10.4262C26.3463 10.1908 26.7618 9.73386 26.9418 9.40152C27.2464 8.80608 27.2603 8.68145 27.2603 5.55193C27.2603 2.03469 27.2049 1.67466 26.4571 0.8992C25.7509 0.15144 25.4047 0.0545082 23.383 0.0268135C22.3583 0.0129662 21.1674 0.0268135 20.752 0.0545082Z" fill="black" fill-opacity="0.05"/>
<path d="M58.9708 0.0683556C52.1302 0.414543 45.6219 4.08411 41.9108 9.66462C41.0661 10.9386 39.7229 13.6665 39.2521 15.0651C39.0721 15.6329 38.7675 16.7268 38.6013 17.4884L38.2828 18.8732L38.2274 35.767C38.1997 48.0497 38.2274 52.8824 38.3382 53.4917C38.7952 55.9012 40.4845 58.0752 42.7001 59.1553C44.4726 60.0138 44.2787 60 54.6089 60C63.3605 60 64.0805 59.9861 64.856 59.7507C67.5147 58.9337 69.6472 56.8982 70.5057 54.4056C70.8104 53.5055 70.8104 53.3948 70.8519 44.1308C70.8935 33.9945 70.8796 33.6345 70.1457 32.0559C69.398 30.4219 67.7086 28.7325 66.1715 28.0401C64.676 27.3755 64.4821 27.3478 58.0708 27.2647C52.0333 27.1816 51.9779 27.1816 51.3548 26.8631C49.4577 25.8661 48.8345 24.2598 49.1253 21.1164C49.1946 20.2579 49.4023 19.1224 49.5546 18.5962C50.607 15.1759 53.5427 12.3233 57.0599 11.3125C57.8631 11.0909 58.6385 11.0078 60.8541 10.9386C63.4851 10.8416 63.6513 10.8278 64.1221 10.5093C64.7314 10.0939 65.1883 9.41536 65.3545 8.73684C65.5207 7.97523 65.5068 3.01786 65.3268 2.17316C65.1053 1.17615 64.2744 0.345306 63.2774 0.123745C62.6266 -0.0147285 60.9372 -0.0424232 58.9708 0.0683556Z" fill="black" fill-opacity="0.05"/>
</svg>
