<svg width="40" height="40" viewBox="0 0 40 40" fill="none" xmlns="http://www.w3.org/2000/svg">
<circle cx="20" cy="20" r="20" fill="black"/>
<path d="M20 17.9C19.443 17.9 18.9089 18.1212 18.5151 18.5151C18.1212 18.9089 17.9 19.443 17.9 20C17.9 20.557 18.1212 21.0911 18.5151 21.4849C18.9089 21.8788 19.443 22.1 20 22.1C20.557 22.1 21.0911 21.8788 21.4849 21.4849C21.8788 21.0911 22.1 20.557 22.1 20C22.1 19.443 21.8788 18.9089 21.4849 18.5151C21.0911 18.1212 20.557 17.9 20 17.9ZM20 16.5C20.9283 16.5 21.8185 16.8687 22.4749 17.5251C23.1313 18.1815 23.5 19.0717 23.5 20C23.5 20.9283 23.1313 21.8185 22.4749 22.4749C21.8185 23.1313 20.9283 23.5 20 23.5C19.0717 23.5 18.1815 23.1313 17.5251 22.4749C16.8687 21.8185 16.5 20.9283 16.5 20C16.5 19.0717 16.8687 18.1815 17.5251 17.5251C18.1815 16.8687 19.0717 16.5 20 16.5ZM24.55 16.325C24.55 16.5571 24.4578 16.7796 24.2937 16.9437C24.1296 17.1078 23.9071 17.2 23.675 17.2C23.4429 17.2 23.2204 17.1078 23.0563 16.9437C22.8922 16.7796 22.8 16.5571 22.8 16.325C22.8 16.0929 22.8922 15.8704 23.0563 15.7063C23.2204 15.5422 23.4429 15.45 23.675 15.45C23.9071 15.45 24.1296 15.5422 24.2937 15.7063C24.4578 15.8704 24.55 16.0929 24.55 16.325ZM20 14.4C18.2682 14.4 17.9854 14.4049 17.1797 14.4406C16.6309 14.4665 16.2627 14.54 15.9211 14.673C15.6173 14.7906 15.3982 14.9313 15.1651 15.1651C14.946 15.3768 14.7775 15.6352 14.6723 15.9211C14.5393 16.2641 14.4658 16.6316 14.4406 17.1797C14.4042 17.9525 14.4 18.2227 14.4 20C14.4 21.7318 14.4049 22.0146 14.4406 22.8203C14.4665 23.3684 14.54 23.7373 14.6723 24.0782C14.7913 24.3827 14.9313 24.6018 15.1637 24.8342C15.3996 25.0694 15.6187 25.2101 15.9197 25.3263C16.2655 25.46 16.6337 25.5342 17.1797 25.5594C17.9525 25.5958 18.2227 25.6 20 25.6C21.7318 25.6 22.0146 25.5951 22.8203 25.5594C23.3677 25.5335 23.7366 25.46 24.0782 25.3277C24.3813 25.2094 24.6018 25.0687 24.8342 24.8363C25.0701 24.6004 25.2108 24.3813 25.327 24.0803C25.46 23.7352 25.5342 23.3663 25.5594 22.8203C25.5958 22.0475 25.6 21.7773 25.6 20C25.6 18.2682 25.5951 17.9854 25.5594 17.1797C25.5335 16.6323 25.46 16.2627 25.327 15.9211C25.2215 15.6355 25.0534 15.3772 24.8349 15.1651C24.6233 14.9459 24.3649 14.7774 24.0789 14.6723C23.7359 14.5393 23.3677 14.4658 22.8203 14.4406C22.0475 14.4042 21.7773 14.4 20 14.4ZM20 13C21.9019 13 22.1392 13.007 22.8854 13.042C23.6309 13.077 24.1384 13.1939 24.585 13.3675C25.047 13.5453 25.4362 13.7861 25.8254 14.1746C26.1813 14.5245 26.4568 14.9478 26.6325 15.415C26.8054 15.8609 26.923 16.3691 26.958 17.1146C26.9909 17.8608 27 18.0981 27 20C27 21.9019 26.993 22.1392 26.958 22.8854C26.923 23.6309 26.8054 24.1384 26.6325 24.585C26.4573 25.0524 26.1818 25.4758 25.8254 25.8254C25.4754 26.1812 25.0521 26.4566 24.585 26.6325C24.1391 26.8054 23.6309 26.923 22.8854 26.958C22.1392 26.9909 21.9019 27 20 27C18.0981 27 17.8608 26.993 17.1146 26.958C16.3691 26.923 15.8616 26.8054 15.415 26.6325C14.9476 26.4571 14.5243 26.1817 14.1746 25.8254C13.8186 25.4755 13.5432 25.0522 13.3675 24.585C13.1939 24.1391 13.077 23.6309 13.042 22.8854C13.0091 22.1392 13 21.9019 13 20C13 18.0981 13.007 17.8608 13.042 17.1146C13.077 16.3684 13.1939 15.8616 13.3675 15.415C13.5427 14.9475 13.8182 14.5241 14.1746 14.1746C14.5244 13.8185 14.9477 13.543 15.415 13.3675C15.8616 13.1939 16.3684 13.077 17.1146 13.042C17.8608 13.0091 18.0981 13 20 13Z" fill="white"/>
</svg>
