<svg width="40" height="40" viewBox="0 0 40 40" fill="none" xmlns="http://www.w3.org/2000/svg">
<circle cx="20" cy="20" r="19.5" stroke="black"/>
<path d="M20.3143 17.4943C20.9955 16.7982 21.8825 16.3429 22.9143 16.3429C23.9979 16.3429 25.0371 16.7733 25.8033 17.5395C26.5695 18.3058 27 19.345 27 20.4286V26H25.5143V20.4286C25.5143 19.739 25.2404 19.0777 24.7528 18.5901C24.2652 18.1025 23.6038 17.8286 22.9143 17.8286C22.2247 17.8286 21.5634 18.1025 21.0758 18.5901C20.5882 19.0777 20.3143 19.739 20.3143 20.4286V26H18.8286V16.7143H20.3143V17.4943ZM15.1143 15.2286C14.8188 15.2286 14.5353 15.1112 14.3264 14.9022C14.1174 14.6932 14 14.4098 14 14.1143C14 13.8188 14.1174 13.5353 14.3264 13.3264C14.5353 13.1174 14.8188 13 15.1143 13C15.4098 13 15.6932 13.1174 15.9022 13.3264C16.1112 13.5353 16.2286 13.8188 16.2286 14.1143C16.2286 14.4098 16.1112 14.6932 15.9022 14.9022C15.6932 15.1112 15.4098 15.2286 15.1143 15.2286ZM14.3714 16.7143H15.8571V26H14.3714V16.7143Z" fill="black"/>
</svg>
