<svg width="40" height="40" viewBox="0 0 40 40" fill="none" xmlns="http://www.w3.org/2000/svg">
<circle cx="20" cy="20" r="19.5" stroke="black"/>
<path d="M22.8588 14.5629C22.2653 14.5628 21.6954 14.7957 21.2719 15.2115C20.8483 15.6273 20.605 16.1927 20.5941 16.7862L20.5722 18.0161C20.571 18.0822 20.5557 18.1472 20.5276 18.2069C20.4994 18.2667 20.4589 18.3198 20.4088 18.3628C20.3586 18.4058 20.2999 18.4377 20.2366 18.4564C20.1733 18.4751 20.1067 18.4802 20.0412 18.4714L18.8222 18.3058C17.2182 18.0872 15.6813 17.3484 14.2069 16.12C13.7399 18.7049 14.652 20.4956 16.8488 21.877L18.2131 22.7345C18.2779 22.7752 18.3317 22.8312 18.3699 22.8976C18.4081 22.964 18.4294 23.0387 18.432 23.1152C18.4347 23.1917 18.4185 23.2677 18.3849 23.3365C18.3514 23.4053 18.3015 23.4649 18.2396 23.51L16.9964 24.4182C17.7359 24.4642 18.438 24.4314 19.0205 24.3159C22.705 23.5802 25.1547 20.8079 25.1547 16.2348C25.1547 15.8615 24.3644 14.5629 22.8588 14.5629ZM19.0323 16.7573C19.0459 16.0045 19.2813 15.2725 19.709 14.6528C20.1367 14.0332 20.7376 13.5535 21.4367 13.2738C22.1357 12.9941 22.9017 12.9269 23.6387 13.0805C24.3758 13.234 25.0512 13.6017 25.5803 14.1373C26.1356 14.1334 26.608 14.2739 27.6646 13.6336C27.403 14.9143 27.2742 15.4703 26.7166 16.2348C26.7166 22.2027 23.0486 25.1046 19.3267 25.8473C16.7746 26.3564 13.0636 25.5201 12 24.4096C12.542 24.3674 14.7442 24.1308 16.0171 23.1991C14.9402 22.4893 10.6537 19.9669 13.4705 13.1853C14.7926 14.7292 16.1335 15.7803 17.4923 16.3379C18.3966 16.7089 18.6184 16.701 19.033 16.758L19.0323 16.7573Z" fill="black"/>
</svg>
