<svg width="30" height="30" viewBox="0 0 30 30" fill="none" xmlns="http://www.w3.org/2000/svg">
<circle cx="15" cy="15" r="14.5" stroke="black"/>
<path d="M15 13.425C14.5823 13.425 14.1817 13.5909 13.8863 13.8863C13.5909 14.1817 13.425 14.5823 13.425 15C13.425 15.4177 13.5909 15.8183 13.8863 16.1137C14.1817 16.4091 14.5823 16.575 15 16.575C15.4177 16.575 15.8183 16.4091 16.1137 16.1137C16.4091 15.8183 16.575 15.4177 16.575 15C16.575 14.5823 16.4091 14.1817 16.1137 13.8863C15.8183 13.5909 15.4177 13.425 15 13.425ZM15 12.375C15.6962 12.375 16.3639 12.6516 16.8562 13.1438C17.3484 13.6361 17.625 14.3038 17.625 15C17.625 15.6962 17.3484 16.3639 16.8562 16.8562C16.3639 17.3484 15.6962 17.625 15 17.625C14.3038 17.625 13.6361 17.3484 13.1438 16.8562C12.6516 16.3639 12.375 15.6962 12.375 15C12.375 14.3038 12.6516 13.6361 13.1438 13.1438C13.6361 12.6516 14.3038 12.375 15 12.375ZM18.4125 12.2437C18.4125 12.4178 18.3434 12.5847 18.2203 12.7078C18.0972 12.8309 17.9303 12.9 17.7562 12.9C17.5822 12.9 17.4153 12.8309 17.2922 12.7078C17.1691 12.5847 17.1 12.4178 17.1 12.2437C17.1 12.0697 17.1691 11.9028 17.2922 11.7797C17.4153 11.6566 17.5822 11.5875 17.7562 11.5875C17.9303 11.5875 18.0972 11.6566 18.2203 11.7797C18.3434 11.9028 18.4125 12.0697 18.4125 12.2437ZM15 10.8C13.7011 10.8 13.489 10.8037 12.8848 10.8304C12.4732 10.8499 12.197 10.905 11.9408 11.0047C11.713 11.0929 11.5486 11.1985 11.3738 11.3738C11.2095 11.5326 11.0832 11.7264 11.0042 11.9408C10.9045 12.1981 10.8493 12.4737 10.8304 12.8848C10.8031 13.4644 10.8 13.667 10.8 15C10.8 16.2988 10.8037 16.5109 10.8304 17.1152C10.8499 17.5263 10.905 17.803 11.0042 18.0587C11.0935 18.287 11.1985 18.4513 11.3728 18.6256C11.5497 18.802 11.714 18.9076 11.9398 18.9947C12.1991 19.095 12.4753 19.1506 12.8848 19.1695C13.4644 19.1968 13.667 19.2 15 19.2C16.2988 19.2 16.5109 19.1963 17.1152 19.1695C17.5258 19.1501 17.8025 19.095 18.0587 18.9958C18.286 18.907 18.4513 18.8015 18.6256 18.6272C18.8026 18.4503 18.9081 18.286 18.9952 18.0602C19.095 17.8014 19.1506 17.5247 19.1695 17.1152C19.1968 16.5356 19.2 16.333 19.2 15C19.2 13.7011 19.1963 13.489 19.1695 12.8848C19.1501 12.4742 19.095 12.197 18.9952 11.9408C18.9161 11.7266 18.79 11.5329 18.6262 11.3738C18.4675 11.2094 18.2736 11.0831 18.0592 11.0042C17.8019 10.9045 17.5258 10.8493 17.1152 10.8304C16.5356 10.8031 16.333 10.8 15 10.8ZM15 9.75C16.4264 9.75 16.6044 9.75525 17.164 9.7815C17.7232 9.80775 18.1038 9.89543 18.4387 10.0256C18.7852 10.159 19.0771 10.3396 19.3691 10.6309C19.636 10.8934 19.8426 11.2109 19.9744 11.5612C20.104 11.8957 20.1923 12.2768 20.2185 12.8359C20.2432 13.3956 20.25 13.5736 20.25 15C20.25 16.4264 20.2448 16.6044 20.2185 17.164C20.1923 17.7232 20.104 18.1038 19.9744 18.4387C19.843 18.7893 19.6363 19.1069 19.3691 19.3691C19.1065 19.6359 18.7891 19.8425 18.4387 19.9744C18.1043 20.104 17.7232 20.1923 17.164 20.2185C16.6044 20.2432 16.4264 20.25 15 20.25C13.5736 20.25 13.3956 20.2448 12.8359 20.2185C12.2768 20.1923 11.8962 20.104 11.5612 19.9744C11.2107 19.8428 10.8932 19.6362 10.6309 19.3691C10.3639 19.1066 10.1574 18.7892 10.0256 18.4387C9.89543 18.1043 9.80775 17.7232 9.7815 17.164C9.75682 16.6044 9.75 16.4264 9.75 15C9.75 13.5736 9.75525 13.3956 9.7815 12.8359C9.80775 12.2763 9.89543 11.8962 10.0256 11.5612C10.157 11.2106 10.3636 10.8931 10.6309 10.6309C10.8933 10.3638 11.2108 10.1573 11.5612 10.0256C11.8962 9.89543 12.2763 9.80775 12.8359 9.7815C13.3956 9.75682 13.5736 9.75 15 9.75Z" fill="black"/>
</svg>
